<svg width="10" height="10" viewBox="0 0 10 10" fill="none" xmlns="http://www.w3.org/2000/svg">
<path fill-rule="evenodd" clip-rule="evenodd" d="M9.14223 4.60156C9.14223 4.75309 9.08204 4.89841 8.97489 5.00555C8.86775 5.1127 8.72243 5.17289 8.5709 5.17289H1.95153L4.4048 7.62502C4.45792 7.67814 4.50005 7.7412 4.5288 7.8106C4.55755 7.88001 4.57235 7.95439 4.57235 8.02952C4.57235 8.10464 4.55755 8.17903 4.5288 8.24843C4.50005 8.31783 4.45792 8.38089 4.4048 8.43401C4.35168 8.48713 4.28862 8.52927 4.21921 8.55802C4.14981 8.58677 4.07542 8.60156 4.0003 8.60156C3.92518 8.60156 3.85079 8.58677 3.78139 8.55802C3.71198 8.52927 3.64892 8.48713 3.5958 8.43401L0.167848 5.00606C0.114643 4.95299 0.0724298 4.88994 0.0436276 4.82053C0.0148255 4.75112 0 4.67671 0 4.60156C0 4.52641 0.0148255 4.452 0.0436276 4.38259C0.0724298 4.31318 0.114643 4.25014 0.167848 4.19706L3.5958 0.769111C3.70308 0.661832 3.84858 0.601562 4.0003 0.601562C4.15202 0.601562 4.29752 0.661832 4.4048 0.769111C4.51208 0.876391 4.57235 1.02189 4.57235 1.17361C4.57235 1.32533 4.51208 1.47083 4.4048 1.57811L1.95153 4.03024H8.5709C8.72243 4.03024 8.86775 4.09043 8.97489 4.19757C9.08204 4.30472 9.14223 4.45004 9.14223 4.60156Z" fill="black" fill-opacity="0.25"/>
</svg>
